<?xml version="1.0" standalone="no"?>
<!DOCTYPE svg PUBLIC "-//W3C//DTD SVG 1.1//EN" "http://www.w3.org/Graphics/SVG/1.1/DTD/svg11.dtd">
<svg xmlns="http://www.w3.org/2000/svg">
<metadata>Copyright (C) 2016 by original authors @ fontello.com</metadata>
<defs>
<font id="fontello" horiz-adv-x="1000" >
<font-face font-family="fontello" font-weight="400" font-stretch="normal" units-per-em="1000" ascent="850" descent="-150" />
<missing-glyph horiz-adv-x="1000" />
<glyph glyph-name="twitter" unicode="&#xe800;" d="M714 510q-31-14-67-19 38 22 52 65-37-21-75-29-34 37-85 37-49 0-83-34t-35-83q0-16 3-27-72 4-135 37t-107 86q-16-28-16-59 0-64 51-98-27 1-56 15v-1q0-42 28-75t68-40q-16-5-28-5-7 0-22 2 12-35 42-58t67-23q-64-50-145-50-15 0-28 1 82-52 180-52 62 0 117 20t93 53 68 76 42 91 13 94q0 10 0 15 35 25 58 61z m143 108v-536q0-66-47-113t-114-48h-535q-67 0-114 48t-47 113v536q0 66 47 113t114 48h535q67 0 114-48t47-113z" horiz-adv-x="857.1" />
<glyph glyph-name="facebook" unicode="&#xe801;" d="M696 779q67 0 114-48t47-113v-536q0-66-47-113t-114-48h-104v332h111l16 130h-127v83q0 31 13 46t51 16l68 1v115q-35 5-100 5-75 0-121-45t-45-126v-95h-112v-130h112v-332h-297q-67 0-114 48t-47 113v536q0 66 47 113t114 48h535z" horiz-adv-x="857.1" />
<glyph glyph-name="behance" unicode="&#xe802;" d="M696 779q67 0 114-48t47-113v-536q0-66-47-113t-114-48h-535q-67 0-114 48t-47 113v536q0 66 47 113t114 48h535z m-418-205h-207v-439h214q65 0 110 32t44 95q0 88-80 111 60 29 60 92 0 32-11 54t-31 34-44 16-55 5z m-12-178h-98v103h91q66 0 66-50 0-53-59-53z m5-187h-103v121h105q70 0 70-63 0-58-72-58z m363-17q-38 0-58 21t-20 59h229q1 6 1 17 0 74-42 123t-113 50q-72 0-118-48t-45-121q0-75 44-121t119-46q114 0 149 107h-77q-7-19-27-30t-42-11z m-6 204q63 0 70-68h-142q2 31 22 49t50 19z m-90 148h178v-43h-178v43z" horiz-adv-x="857.1" />
<glyph glyph-name="gplus" unicode="&#xe803;" d="M463 170q0-42-33-62t-78-21q-23 0-45 6t-42 15-32 30-13 44q0 25 14 44t37 29 46 14 47 4q11 0 17-1 1-1 13-9t15-11 12-10 14-12 11-13 9-14 5-15 3-18z m-42 304q0-33-18-55t-51-22q-30 0-52 24t-32 53-10 60q0 34 18 58t51 24q30 0 52-25t33-57 9-60z m59 144l50 36h-148q-48 0-90-18t-71-55-29-85q0-52 36-87t88-34q13 0 24 2-7-16-7-30 0-25 22-53-97-6-143-35-26-16-42-41t-16-53q0-24 10-43t27-31 39-21 43-12 43-3q33 0 67 8t63 26 48 46 19 65q0 28-11 50t-28 38-32 26-27 25-12 24 9 24 21 22 25 24 21 33 8 46q0 33-12 55t-41 51h46z m163-250h71v35h-71v72h-36v-72h-71v-35h71v-90h36v90z m214 250v-536q0-66-47-113t-114-48h-535q-67 0-114 48t-47 113v536q0 66 47 113t114 48h535q67 0 114-48t47-113z" horiz-adv-x="857.1" />
<glyph glyph-name="instagram" unicode="&#xe804;" d="M760 54v362h-75q11-35 11-73 0-71-36-130t-97-94-134-35q-110 0-188 76t-78 183q0 38 11 73h-79v-362q0-14 10-24t25-10h596q14 0 24 10t10 24z m-158 298q0 69-51 118t-122 49q-71 0-121-49t-51-118 51-118 121-49q72 0 122 49t51 118z m158 201v92q0 15-11 27t-27 11h-98q-16 0-27-11t-11-27v-92q0-17 11-28t27-11h98q16 0 27 11t11 28z m97 116v-638q0-45-32-77t-78-33h-637q-45 0-78 33t-32 77v638q0 45 32 77t78 33h637q45 0 78-33t32-77z" horiz-adv-x="857.1" />
<glyph glyph-name="linkedin" unicode="&#xe805;" d="M132 61h129v387h-129v-387z m138 507q-1 29-21 48t-51 19-53-19-21-48q0-29 20-48t52-19h0q33 0 53 19t21 48z m326-507h129v222q0 86-41 130t-108 44q-75 0-116-65h1v56h-129q2-37 0-387h129v216q0 22 4 32 8 19 25 33t41 14q65 0 65-88v-207z m261 557v-536q0-66-47-113t-114-48h-535q-67 0-114 48t-47 113v536q0 66 47 113t114 48h535q67 0 114-48t47-113z" horiz-adv-x="857.1" />
<glyph glyph-name="plus" unicode="&#xe806;" d="M786 439v-107q0-22-16-38t-38-15h-232v-233q0-22-16-37t-38-16h-107q-22 0-38 16t-15 37v233h-232q-23 0-38 15t-16 38v107q0 23 16 38t38 16h232v232q0 22 15 38t38 16h107q23 0 38-16t16-38v-232h232q22 0 38-16t16-38z" horiz-adv-x="785.7" />
<glyph glyph-name="minus" unicode="&#xe807;" d="M786 439v-107q0-22-16-38t-38-15h-678q-23 0-38 15t-16 38v107q0 23 16 38t38 16h678q22 0 38-16t16-38z" horiz-adv-x="785.7" />
<glyph glyph-name="save" unicode="&#xe808;" d="M214-7h429v214h-429v-214z m500 0h72v500q0 8-6 21t-11 20l-157 156q-5 6-19 12t-22 5v-232q0-22-15-38t-38-16h-322q-22 0-37 16t-16 38v232h-72v-714h72v232q0 22 16 38t37 16h465q22 0 38-16t15-38v-232z m-214 518v178q0 8-5 13t-13 5h-107q-7 0-13-5t-5-13v-178q0-8 5-13t13-5h107q7 0 13 5t5 13z m357-18v-518q0-22-15-38t-38-16h-750q-23 0-38 16t-16 38v750q0 22 16 38t38 16h517q23 0 50-12t42-26l156-157q16-15 27-42t11-49z" horiz-adv-x="857.1" />
<glyph glyph-name="fail" unicode="&#xe809;" d="M452 194q18-18 18-43t-18-43q-18-16-43-16t-43 16l-132 152-132-152q-18-16-43-16t-43 16q-16 18-16 43t16 43l138 156-138 158q-16 18-16 43t16 43q18 16 43 16t43-16l132-152 132 152q18 16 43 16t43-16q18-18 18-43t-18-43l-138-158z" horiz-adv-x="470" />
<glyph glyph-name="add-movie" unicode="&#xe80a;" d="M570 850l-119-121 303-303 121 119-75 76c-21-17-42-25-71-25-58 0-108 50-108 108 0 25 8 50 25 71l-76 75z m-157-159l-413-411 76-76c20 17 41 25 70 25 58 0 108-50 108-108 0-25-8-50-25-70l76-76 411 413-303 303z m337-424l0-167-167 0 0-83 167 0 0-167 83 0 0 167 167 0 0 83-167 0 0 167-83 0z" horiz-adv-x="1000" />
<glyph glyph-name="popcorn" unicode="&#xe80b;" d="M805 510c-13-6-27-10-42-10-9 0-17 1-26 4-19-25-49-40-82-40-12 0-24 2-35 6 0-1 0-2-1-4-17-26-43-43-73-49l-27-467-38 0-28 492c-16 14-28 32-34 53-19-19-45-31-74-31-33 0-63 15-82 40-8-3-17-4-26-4-15 0-29 4-42 10-16-20-24-46-21-73l56-499c5-50 48-88 98-88h344c50 0 93 38 98 88l56 499c3 27-5 53-21 73z m-475-561l-58 498 80 0 29-498-51 0z m341 1l-52 0 29 498 79 1-56-499z m-278 745c7 4 15 7 23 9-1 5-2 10-2 16 0 35 19 65 48 81-11 21-32 35-57 35-36 0-65-29-65-64 0-2 0-4 1-6-1 0-1 0-1 0-12 0-23-4-32-10 39-2 71-27 85-61z m57 11c4-1 9-1 13-2 19 20 46 31 74 31 19 0 38-5 55-15 7-5 13-11 19-17 11 21 29 38 50 46-8 7-17 13-28 16 2 6 3 13 3 21 0 35-28 64-64 64-36 0-65-29-65-64 0-3 1-5 1-7 0 0 0 0-1 0-33 0-59-26-59-59 0-5 1-10 2-14z m185-42c0-3 2-6 2-9 7-26 2-54-13-78 0 0 0-1-1-1 12-23 15-49 9-74 8-3 15-5 23-5 33 0 60 22 68 52 11-10 25-16 40-16 33 0 60 27 60 60 0 33-27 60-60 60 0 0 0 0-1 0 1 2 1 4 1 6 0 35-29 64-65 64-33 0-61-26-63-59z m-398-131c16 0 29 6 40 16 9-30 36-52 68-52 21 0 40 10 53 24-4 2-7 3-10 5-46 29-60 89-31 135 2 4 5 7 8 10-5 30-32 52-63 52-36 0-65-29-65-64 0-2 1-4 1-6 0 0 0 0-1 0-33 0-59-27-59-60 0-33 26-60 59-60z m337 158c-12 8-24 11-37 11-23 0-46-12-59-33-1-2-2-4-3-6 0 0 0 1-1 1-10 6-22 9-34 9-21 0-42-10-55-30-18-30-9-70 21-89 10-6 22-9 34-9 3 0 7 0 11 1-9-32 3-68 33-86 13-8 27-12 41-12 26 0 51 13 65 36 19 31 14 69-9 94 5 5 11 11 15 17 20 33 10 76-22 96z" horiz-adv-x="1000" />
<glyph glyph-name="director" unicode="&#xe80c;" d="M884 235v91h-33v95 429h-97v-81h-507v81h-98v-524h-33v-91h81l221-151-223-152h-59v-82h102v0l0 0 262 179 262-179 0 0v0h103v82h-60l-223 152 221 151h81v0z m-384-95l-139 95h278l-139-95z m254 186h-507v197h507v-197z" horiz-adv-x="1000" />
<glyph glyph-name="studio" unicode="&#xe80d;" d="M990-40h-20v512c0 5-3 9-7 10l-449 123c-4 1-7 5-7 9v98c0 46-107 83-239 83s-238-37-238-83v-752h-20c-5 0-10-5-10-11v-34c0-6 5-10 10-10h980c5 0 10 4 10 10v34c0 6-5 11-10 11z m-879 118c0-4-3-8-7-9-15-4-28-9-39-14-7-3-15 2-15 9v46c0 4 3 7 6 9 12 6 26 11 42 16 7 2 13-3 13-10v-47z m0 110c0-4-3-8-7-9-15-5-28-9-39-14-7-3-15 2-15 9v46c0 4 3 7 6 9 12 6 26 11 42 16 7 2 13-3 13-10v-47z m0 110c0-4-3-8-7-9-15-5-28-9-39-14-7-3-15 2-15 9v46c0 4 3 7 6 9 12 6 26 11 42 16 7 2 13-3 13-10v-47z m0 110c0-4-3-8-7-10-15-4-28-8-39-13-7-3-15 2-15 9v46c0 3 3 7 6 9 12 6 26 11 42 16 7 2 13-3 13-10v-47z m0 110c0-4-3-8-7-10-15-4-28-8-39-13-7-3-15 2-15 9v45c0 4 3 8 6 10 12 6 26 11 42 16 7 2 13-3 13-10v-47z m0 110c0-4-3-8-7-10-15-4-28-8-39-13-7-3-15 2-15 9v45c0 4 3 8 6 10 12 6 26 11 42 16 7 2 13-3 13-10v-47z m144-529c0-6-4-10-10-10-34-1-66-5-96-10-6-1-12 4-12 10v47c0 5 4 9 9 10 30 6 63 9 99 11 5 0 10-5 10-11l0-47 0 0z m0 110c0-6-4-10-10-10-34-1-66-5-96-10-6-1-12 4-12 10v47c0 5 4 9 9 10 30 6 63 9 99 11 5 0 10-5 10-11l0-47 0 0z m0 110c0-6-4-10-10-10-34-1-66-5-96-10-6-1-12 4-12 10v47c0 5 4 9 9 10 30 6 63 9 99 10 5 1 10-4 10-10l0-47 0 0z m0 110c0-6-4-10-10-10-34-2-66-5-96-10-6-1-12 4-12 10v47c0 5 4 9 9 10 30 6 63 9 99 10 5 1 10-4 10-10l0-47 0 0z m0 110c0-6-4-10-10-11-34-1-66-4-96-9-6-1-12 4-12 10v47c0 5 4 9 9 10 30 6 63 9 99 10 5 1 10-4 10-10l0-47 0 0z m0 110c0-6-4-10-10-11-34-1-66-4-96-9-6-1-12 3-12 10v47c0 5 4 9 9 10 30 6 63 9 99 10 5 1 10-4 10-10l0-47 0 0z m170 26c0 7 7 12 13 10 16-5 30-10 42-16 4-2 6-6 6-10v-45c0-7-7-12-14-9-12 5-25 9-39 13-5 2-8 6-8 10v47l0 0z m-26-586c0-6-6-11-12-10-29 5-62 9-96 10-5 0-10 4-10 10v47c0 6 5 11 11 11 35-2 69-5 99-11 5-1 8-5 8-10l0-47 0 0z m0 110c0-6-6-11-12-10-29 5-62 9-96 10-5 0-10 4-10 10v47c0 6 5 11 11 11 35-2 69-5 99-11 5-1 8-5 8-10l0-47 0 0z m0 110c0-6-6-11-12-10-29 5-62 9-96 10-5 0-10 4-10 10v47c0 6 5 11 11 10 35-1 69-4 99-10 5-1 8-5 8-10l0-47 0 0z m0 110c0-6-6-11-12-10-29 5-62 8-96 10-5 0-10 4-10 10v47c0 6 5 11 11 10 35-1 69-4 99-10 5-1 8-5 8-10l0-47 0 0z m0 110c0-6-6-11-12-10-29 5-62 8-96 9-5 1-10 5-10 11v47c0 6 5 11 11 10 35-1 69-4 99-10 5-1 8-5 8-10l0-47 0 0z m0 110c0-7-6-11-12-10-29 5-62 8-96 9-5 1-10 5-10 11v47c0 6 5 11 11 10 35-1 69-4 99-10 5-1 8-5 8-10l0-47 0 0z m26-121v47c0 7 7 12 13 10 16-5 30-10 42-16 4-2 6-6 6-10v-45c0-7-7-12-14-9-12 5-25 9-39 13-5 2-8 6-8 10z m333-558h-158v95c0 5 5 10 10 10h138c6 0 10-5 10-10v-95z m163 180c0-5-5-10-10-10h-441c-6 0-10 5-10 10v40c0 6 4 10 10 10h441c5 0 10-4 10-10v-40z m0 102c0-6-5-10-10-10h-441c-6 0-10 4-10 10v40c0 5 4 10 10 10h441c5 0 10-5 10-10v-40z m0 102c0-6-5-10-10-10h-441c-6 0-10 4-10 10v40c0 5 4 10 10 10h441c5 0 10-5 10-10v-40z" horiz-adv-x="1000" />
<glyph glyph-name="back" unicode="&#xe80e;" d="M0 350l586 391 0-211 414 0 0-360-414 0 0-211z" horiz-adv-x="1000" />
<glyph glyph-name="edit" unicode="&#xe80f;" d="M0-143l68 343 274-273z m137 392l422 422 259-260-421-422z m531 494q2 39 31 69t69 31 66-26l131-130q25-26 24-66t-30-69-69-30-66 24l-131 131q-27 27-25 66z" horiz-adv-x="989" />
<glyph glyph-name="delete" unicode="&#xe810;" d="M0 633l0 141 289 0 0 76 246 0 0-76 289 0 0-141-824 0z m43-783l0 676 738 0 0-676-738 0z" horiz-adv-x="824" />
<glyph glyph-name="view-user" unicode="&#xe811;" d="M500 850c-127 0-231-81-231-231 0-100 47-204 116-262l0-53c0-23-16-43-35-46-150-47-273-146-273-204l0-69c0-74 188-135 423-135 235 0 423 61 423 135l0 69c0 54-119 157-273 204-19 3-35 27-35 46l0 53c69 58 116 162 116 262 0 150-104 231-231 231z" horiz-adv-x="1000" />
<glyph glyph-name="delete-user" unicode="&#xe812;" d="M404 844c-116 0-209-80-209-232 0-99 39-201 100-263 23-63-19-86-28-89-122-45-263-125-263-206l0-30c0-109 208-134 401-134 42 0 85 1 126 4-50 54-81 126-81 206 0 69 23 132 62 183-6 13-8 35 2 67 60 63 99 163 99 262 0 152-93 232-209 232z m346-501c-134 0-243-109-243-243 0-134 109-243 243-243 134 0 243 109 243 243 0 134-109 243-243 243z m-135-208l268 0 0-70-268 0 0 70z" horiz-adv-x="1000" />
<glyph glyph-name="music" unicode="&#xe813;" d="M857 725v-625q0-28-19-50t-48-33-58-18-53-6-54 6-58 18-48 33-19 50 19 50 48 33 58 18 54 6q58 0 107-22v300l-429-132v-396q0-28-19-50t-48-33-58-18-53-6-54 6-58 18-48 33-19 50 19 50 48 34 58 17 54 6q58 0 107-21v539q0 17 10 32t28 19l464 143q7 3 16 3 22 0 38-16t15-38z" horiz-adv-x="857.1" />
<glyph glyph-name="view-movie" unicode="&#xe814;" d="M650 850l-137-138 349-349 138 137-87 87c-21-17-50-29-80-29-70 0-125 55-125 125 0 30 12 59 29 80l-87 87z m-179-180l-471-470 87-87c21 17 51 29 80 29 71 0 125-54 125-125 0-30-12-59-29-80l87-87 470 471-349 349z" horiz-adv-x="1000" />
<glyph glyph-name="viewed" unicode="&#xe815;" d="M354 683c-51 0-93-37-101-86-23-5-44-19-58-43l-136-287 1 0c-11-26-18-54-18-84 0-114 93-208 208-208 90 0 166 58 195 138 17-8 35-13 55-13 20 0 38 5 55 13 29-80 105-138 195-138 115 0 208 94 208 208 0 30-7 58-18 84l1 0-136 287c-13 24-35 38-58 43-8 49-50 86-101 86-50 0-92-35-102-83l-88 0c-10 48-51 83-102 83z m-104-375c70 0 125-55 125-125 0-69-55-125-125-125-69 0-125 56-125 125 0 70 56 125 125 125z m500 0c70 0 125-55 125-125 0-69-55-125-125-125-69 0-125 56-125 125 0 70 56 125 125 125z m-250-41c23 0 42-19 42-42 0-23-19-42-42-42-23 0-42 19-42 42 0 23 19 42 42 42z" horiz-adv-x="1000" />
<glyph glyph-name="digital" unicode="&#xe816;" d="M0 239l199 537 602 0 199-537-80-315-840 0z m78-51l55-213 734 0 55 213-844 0z m654-106q0 16 12 28t28 12 29-12 11-28-11-29-29-11-28 11-12 29z" horiz-adv-x="1000" />
<glyph glyph-name="producer" unicode="&#xe817;" d="M929 493q29 0 50-21t21-51-21-50-50-21v-214q0-29-22-50t-50-22q-233 194-453 212-32-10-51-36t-17-57 22-51q-11-19-13-37t4-32 18-31 27-28 35-28q-17-32-63-46t-94-7-73 31q-4 13-17 49t-18 53-12 50-9 56 2 55 12 62h-68q-36 0-63 26t-26 63v107q0 37 26 63t63 26h268q243 0 500 215 29 0 50-22t22-50v-214z m-72-337v532q-220-168-428-191v-151q210-23 428-190z" horiz-adv-x="1000" />
<glyph glyph-name="script" unicode="&#xe818;" d="M600 630l35 0 0-672-502 0c-74 0-133 52-133 128l0 581c0 41 34 75 75 75l465 0 0-576-407 0c-52 0-88-28-88-78l0-2c0-50 36-83 88-83l467 0 0 627z m-60-562l-402 0c-12 0-22 7-22 19 0 10 10 16 22 16l402 0 0-35z" horiz-adv-x="635" />
<glyph glyph-name="tags" unicode="&#xe819;" d="M250 600q0 30-21 51t-50 20-51-20-21-51 21-50 51-21 50 21 21 50z m595-321q0-30-20-51l-274-274q-22-21-51-21-30 0-50 21l-399 399q-21 21-36 57t-15 65v232q0 29 21 50t50 22h233q29 0 65-15t57-36l399-399q20-21 20-50z m215 0q0-30-21-51l-274-274q-22-21-51-21-20 0-33 8t-29 25l262 262q21 21 21 51 0 29-21 50l-399 399q-21 21-57 36t-65 15h125q29 0 65-15t57-36l399-399q21-21 21-50z" horiz-adv-x="1071.4" />
<glyph glyph-name="admin" unicode="&#xe81a;" d="M927 300c-65 31-108-11-169-61-54-43-96-81-100-50-8 50-8 73-8 142 0 54 15 177 31 269 15 112 23 177-35 181-54 4-54-23-73-177-15-115-38-196-50-196s27 104 42 211c31 189 20 212-30 220-43 11-54-27-81-220-15-100-50-200-58-200-11 0-50 100-77 204-50 200-84 192-104 185-26-8-50-27 0-216 31-111 50-180 35-184-8 0-23 61-42 150-27 150-66 150-89 142-23-8-27-23 4-169 31-142 23-166 31-354 11-242 77-246 77-327h327c11 23 31 38 84 92 54 54 177 220 273 270 70 34 43 73 12 88z" horiz-adv-x="1000" />
<glyph glyph-name="bluray" unicode="&#xe81b;" d="M471 528c0 0-5-1-5-4 0-2 3-3 5-3 150 0 394-60 386-189-6-105-197-228-636-228-2 0-3-2-3-4 0-2 0-3 3-4 0 0 763-30 779 236 13 216-528 196-529 196z m-365-36c-1 0-2-1-3-1-44-63-70-105-98-157l-3-4-1-3c-2-5-2-10 1-15 17-26 109-56 314-56 153 0 315 24 315 70 0 44-160 71-315 71-51 0-102-7-116-10 14 22 71 100 72 101 0 1 1 1 1 1 0 1-1 1-1 2-1 0-1 1-2 1l-164 0z m210-143c94 0 152-13 152-23 0-10-58-23-152-23-94 0-151 13-151 23 0 10 57 23 151 23z" horiz-adv-x="1000" />
<glyph glyph-name="person" unicode="&#xe81d;" d="M81-35c0 0 0 58 0 66 0 84 127 161 265 188 0 0 43 23 31 66-42 54-54 111-54 111-8 4-19 12-27 19-11 16-27 62-23 97 4 30 12 19 16 27-31 69-16 157 19 223 73 127 227 88 250 42 146 27 142-204 119-262 0 0 12-3 12-57-4-58-50-93-50-93 0-15-20-61-50-103-27-54 26-66 26-66 139-27 266-104 266-188 0-8 0-66 0-66 0-54-208-111-400-111-189 0-400 19-400 107z" horiz-adv-x="1000" />
<glyph glyph-name="comm" unicode="&#xe81e;" d="M724 850c-4 0-8-1-11-1-14-2-26-11-33-24l-1 0 0-1-160-291-1 0-28-52c-2 0-3 0-6 0-7 0-15-1-22-4-3 0-5-1-8-2-4-2-8-4-12-6l-384-254c-4-2-7-5-10-8-3-3-4-7-6-11-2-5-3-10-3-15l0-39c0-31 15-45 19-49l185-197c23-23 53-34 84-34 23 0 46 7 65 23 0 0 327 235 346 246 15 12 28 30 28 53l0 24c0 2 0 3 0 5l4-4 40 71 176 307 1 1 0 1c10 26 5 57-18 75l0 1-214 173-1 0c-9 7-20 11-30 12z m-4-40c3 1 8 0 11-2l215-173c7-5 11-19 6-31l-145-255c-4 8-6 16-12 23l-2 0-191 173c0 0-1-1-1 0-7 7-17 8-26 9l138 252 0 1 1 0c1 1 3 3 6 3z m-157-289c4 0 8-1 12-4l1 0 191-173c13-13 16-30 8-46l0-1-26-47c-3 5-6 8-7 10l1 10-204 192c-4 3-7 5-11 7l24 45c2 4 6 6 11 7z m-89-166c30 3 61-6 80-28 31-34 23-85-15-112-39-30-101-27-131 8-31 34-27 85 15 111 15 12 33 19 51 21z m10-36c-13 0-26-3-38-11-23-15-26-46-7-61 19-20 50-21 73-5 23 15 27 47 7 62-9 10-22 14-35 15z m-253-65l180-189-68-49-177 187 65 51z m500-51l0-22c0-8-5-16-12-23-19-12-346-247-346-247-12-7-27-15-46-15-23 0-42 8-58 24l-180 199c-8 4-12 11-12 27l0 11 192-204c27-27 69-30 100-11l362 261z m-421-74c-5 0-10-2-14-6-8-4-8-15-4-23 8-4 20-8 28 0 7 4 7 15 3 23-3 4-8 6-13 6z m40-42c-5 0-12-2-16-6-8-4-7-15-3-23 7-4 20-4 27 0 8 4 8 15 4 23-2 4-7 6-12 6z" horiz-adv-x="1000" />
<glyph glyph-name="delete-movie" unicode="&#xe81f;" d="M570 850l-119-121 303-303 121 119-75 76c-21-17-42-25-71-25-58 0-108 50-108 108 0 25 8 50 25 71l-76 75z m-157-159l-413-411 76-76c20 17 41 25 70 25 58 0 108-50 108-108 0-25-8-50-25-70l76-76 411 413-303 303z m263-457l-60-60 116-116-116-116 60-59 116 115 116-115 59 59-115 116 115 116-59 60-116-116-116 116z" horiz-adv-x="1000" />
<glyph glyph-name="movie" unicode="&#xe820;" d="M962 812h-39v-77h-115v77h-616v-77h-115v77h-38c-22 0-39-18-39-39v-846c0-21 17-39 39-39h38v39h115v-39h616v39h115v-39h39c21 0 38 18 38 39v846c0 21-17 39-38 39z m-770-770h-115v116h115v-116z m0 231h-115v116h115v-116z m0 231h-115v115h115v-115z m731-462h-115v116h115v-116z m0 231h-115v116h115v-116z m0 231h-115v115h115v-115z" horiz-adv-x="1000" />
<glyph glyph-name="star" unicode="&#xe821;" d="M929 489q0-12-15-27l-203-197 48-279q1-4 1-12 0-11-6-19t-17-9q-10 0-22 7l-251 132-250-132q-13-7-23-7-11 0-17 9t-6 19q0 4 1 12l48 279-203 197q-14 15-14 27 0 21 31 26l280 40 126 254q11 23 27 23t28-23l125-254 280-40q32-5 32-26z" horiz-adv-x="928.6" />
<glyph glyph-name="star-half" unicode="&#xe822;" d="M464 832v-747l-250-132q-13-7-23-7-11 0-17 9t-6 19q0 4 1 12l48 279-203 197q-14 15-14 27 0 21 31 26l280 40 126 254q11 23 27 23z" horiz-adv-x="500" />
<glyph glyph-name="character" unicode="&#xe823;" d="M500 850c0 0-165 4-296-100-34-50-46-208-50-246l-7 0c-8 0-16-8-16-16l7-199c0-8 8-16 16-16l12 0 0-3c0 0 46-209 65-243 23-47 88-131 142-161 23-12 81-16 123-16 47 0 104 4 123 16 54 26 120 114 143 161 19 34 65 243 65 243l0 3 19 0c8 0 16 8 16 16l7 199c0 8-8 16-16 16l-7 0c-4 38-12 196-50 246-131 104-296 100-296 100z m-108-77l28-196c0 0 7-43 7-47 0-4 27-10 27-10l100 0c0 0 27 6 27 10 0 4 8 47 8 47l26 196c0 0 77-19 104-42 23-23 50-58 50-58l-7-262 30-87c-4-4-11-58-23-74-11-15-84-154-84-154 0 0-11-54 0-104 12-50-12-53-12-53l-31-35-53 23-166 0-54-23-30 35c0 0-24 3-12 53 12 50 0 104 0 104 0 0-85 139-96 154-12 16-19 69-19 69l31 89-9 265c0 0 24 35 55 58 26 19 103 42 103 42z m-131-422c-2 0-4-1-4-1l-30-23c0 0-7-8 0-12 19-11 62-38 74-42 7-8 22-7 22-7l77-5c0 0 12 1 16 9 4 3 19 26 19 26 0 0 11 8-8 12-66 4-135 34-158 42-4 2-6 2-8 1z m478 0c-2 1-4 1-8-1-23-8-92-38-158-42-19-4-8-12-8-12 0 0 15-23 19-26 4-8 16-9 16-9l77 5c0 0 15-1 23 7 11 4 54 31 73 42 8 4 0 12 0 12l-30 23c0 0-2 1-4 1z" horiz-adv-x="1000" />
<glyph glyph-name="loading" unicode="&#xe824;" d="M498 850c-114 0-228-39-320-116l0 0c173 140 428 130 588-31 134-134 164-332 89-495-10-29-5-50 12-68 21-20 61-23 84 0 3 3 12 15 15 24 71 180 33 393-112 539-99 98-228 147-356 147z m-409-274c-14 0-29-5-39-16-3-3-13-15-15-24-71-180-34-393 112-539 185-185 479-195 676-31l0 0c-173-140-428-130-589 31-134 134-163 333-89 495 11 29 6 50-12 68-11 11-27 17-44 16z" horiz-adv-x="1001" />
<glyph glyph-name="rebel" unicode="&#xe825;" d="M11 362q4 121 64 227t171 177h2q0 0 0-1-5-5-16-19t-29-43-33-62-25-75-8-84 22-88 60-86q28-28 57-39t51-6 39 13 26 18l9 9q21 29 29 65t4 68-12 60-15 45l-7 16q-6 14-17 28t-24 22-25 17-19 10l-7 4 58 64q21-9 43-29t33-34l11-15q0 27-11 58t-22 48l-11 18 89 102 90-101q-19-26-30-57t-12-51l-2-18q12 20 34 40t38 30l15 9 58-64q-25-8-48-28t-33-36l-11-17q-17-31-27-74t-4-95 32-87q19-25 43-34t48-3 42 15 32 18l12 9q34 30 54 65t27 67 6 68-10 66-21 60-25 52-26 40-19 27l-7 9q-8 7-4 7l6-1q22-17 34-26t35-28 36-32 32-37 31-43 26-49 21-57 13-65 6-76q2-145-60-260t-174-179-255-64q-103 0-196 41t-158 111-103 163-33 197z" horiz-adv-x="1000" />
<glyph glyph-name="add-user" unicode="&#xe826;" d="M404 844c-116 0-209-80-209-232 0-99 39-201 100-263 23-63-19-86-28-89-122-45-263-125-263-206l0-30c0-109 208-134 401-134 42 0 85 1 126 4-50 54-81 126-81 206 0 69 23 132 62 183-6 13-8 35 2 67 60 63 99 163 99 262 0 152-93 232-209 232z m346-501c-134 0-243-109-243-243 0-134 109-243 243-243 134 0 243 109 243 243 0 134-109 243-243 243z m-34-108l68 0 0-100 99 0 0-70-99 0 0-100-68 0 0 100-101 0 0 70 101 0 0 100z" horiz-adv-x="1000" />
<glyph glyph-name="empire" unicode="&#xe827;" d="M488-64v-37q-116 3-215 61t-158 154l32 19q17-27 41-55l36 32q83-94 206-119l-10-48q36-7 68-7z m-334 296l-46-16q12-33 27-62l-32-19q-54 101-54 215t54 215l32-19q-17-31-27-62l45-16q-19-56-19-118 0-61 20-118z m699-99l32-19q-59-96-158-154t-215-61v37q32 0 68 7l-10 48q123 25 206 119l36-32q24 28 41 55z m-85 309l-130-45q8-23 8-47t-8-47l130-45q-17-51-55-94l-103 90q-32-37-82-47l27-135q-29-5-55-5t-55 5l27 135q-50 10-82 47l-103-90q-38 43-55 94l130 45q-8 23-8 47t8 47l-130 45q18 52 55 94l103-90q33 38 82 48l-27 134q25 5 55 5t55-5l-27-134q49-10 82-48l103 90q37-42 55-94z m-280 359v-37q-37-1-68-7l10-48q-123-24-206-118l-36 31q-21-23-41-54l-31 18q59 96 157 154t215 61z m463-451q0-114-54-215l-32 19q15 29 27 62l-46 16q20 57 20 118 0 62-19 118l45 16q-10 31-27 62l32 19q54-101 54-215z m-67 236l-31-18q-20 31-41 54l-36-31q-83 94-206 118l10 48q-31 6-68 7v37q117-3 215-61t157-154z m91-236q0 97-37 185t-102 151-151 102-185 37-185-37-151-102-102-151-37-185 37-185 102-151 151-102 185-37 185 37 151 102 102 151 37 185z m25 0q0-102-40-194t-106-160-160-106-194-40-194 40-160 106-106 160-40 194 40 194 106 160 160 106 194 40 194-40 160-106 106-160 40-194z" horiz-adv-x="1000" />
<glyph glyph-name="calendar" unicode="&#xe828;" d="M71-79h161v161h-161v-161z m197 0h178v161h-178v-161z m-197 197h161v178h-161v-178z m197 0h178v178h-178v-178z m-197 214h161v161h-161v-161z m411-411h179v161h-179v-161z m-214 411h178v161h-178v-161z m428-411h161v161h-161v-161z m-214 197h179v178h-179v-178z m-196 482v161q0 7-6 12t-12 6h-36q-7 0-12-6t-6-12v-161q0-7 6-13t12-5h36q7 0 12 5t6 13z m410-482h161v178h-161v-178z m-214 214h179v161h-179v-161z m214 0h161v161h-161v-161z m18 268v161q0 7-5 12t-13 6h-35q-8 0-13-6t-5-12v-161q0-7 5-13t13-5h35q8 0 13 5t5 13z m215 36v-715q0-29-22-50t-50-21h-786q-29 0-50 21t-21 50v715q0 29 21 50t50 21h72v54q0 36 26 63t63 26h36q37 0 63-26t26-63v-54h214v54q0 36 27 63t63 26h35q37 0 63-26t27-63v-54h71q29 0 50-21t22-50z" horiz-adv-x="928.6" />
<glyph glyph-name="home" unicode="&#xe829;" d="M0-150l0 649 453 351 453-351 0-649-312 0 0 391-281 0 0-391-313 0z" horiz-adv-x="906" />
<glyph glyph-name="mail" unicode="&#xe82a;" d="M1000 454v-443q0-37-26-63t-63-27h-822q-36 0-63 27t-26 63v443q25-28 56-49 202-137 278-192 32-24 51-37t53-27 61-13h2q28 0 61 13t53 27 51 37q95 68 278 192 32 22 56 49z m0 164q0-44-27-84t-68-69q-210-146-262-181-5-4-23-17t-30-22-29-18-33-15-27-5h-2q-12 0-27 5t-33 15-29 18-30 22-23 17q-51 35-147 101t-114 80q-35 23-65 64t-31 77q0 43 23 72t66 29h822q36 0 62-26t27-63z" horiz-adv-x="1000" />
<glyph glyph-name="edit-user" unicode="&#xe82b;" d="M423 844c-122 0-227-82-227-240 0-103 48-208 112-273 24-65-20-89-29-93-128-46-278-130-278-214l0-31c0-107 196-135 388-138-2 15-3 30 2 45l48 163c5 17 15 32 29 44l121 122c-10 3-19 6-29 9-6 2-44 19-20 93 63 65 110 170 110 273 0 158-105 240-227 240z m454-460c-12 0-24-5-33-15l-21-20 137-137 21 20c18 19 19 50 0 69l-69 68c-9 10-22 15-35 15z m-76-54l-33-32 142-141 34 30-143 143z m-55-54l-227-225c-3-3-6-6-7-10l-47-162c-2-7 0-15 5-21 4-4 9-6 14-6 2 0 3 1 5 2l164 46c4 2 6 5 8 8l228 226-55 55-37 37-51 50z m-199-259l12-11 53-5 3-52 14-14-88-25-19 19 25 88z" horiz-adv-x="1000" />
<glyph glyph-name="success" unicode="&#xe82c;" d="M249 0q-34 0-56 28l-180 236q-16 24-12 52t26 46 51 14 47-28l118-154 296 474q16 24 43 30t53-8q24-16 30-43t-8-53l-350-560q-20-32-56-32z" horiz-adv-x="667" />
<glyph glyph-name="edit-movie" unicode="&#xe82d;" d="M828 827c-42-12-76-49-84-93-4-17-2-40 4-56l4-11-24-23c-12-12-23-23-24-22-1 0-28 26-60 56-31 31-65 62-74 69-43 32-82 48-117 48-15 0-35-4-35-7 0-1 49-51 109-111 61-60 110-110 110-112 0-1-49-52-110-112-60-60-109-110-109-111 0-4 20-8 37-8 34 1 72 17 113 48 13 9 48 42 80 72l56 56 24-23 24-24-4-11c-28-79 45-166 127-152 108 18 136 155 45 214-31 20-75 23-107 8l-16-7-25 24-24 25 25 25 25 25 13-6c65-30 142 7 160 77 16 59-19 122-78 140-18 6-47 6-65 2z m53-59c27-13 41-39 34-67-4-18-14-31-30-39-30-14-64-3-79 27-6 12-7 34-2 47 13 30 48 45 77 32z m0-299c27-12 41-39 34-67-4-17-14-30-30-38-30-15-64-4-79 27-6 11-7 34-2 46 13 31 48 45 77 32z m-852 130c-4-4-4-33-4-360 0-342 0-356 4-360 5-4 33-4 361-4 195 0 356 1 358 2 8 5 8 12 8 217l0 204-12 14c-18 20-29 41-35 66-5 17-5 25-4 49 1 15 1 28 0 28-1 0-20-19-43-41-23-22-51-47-62-56l-20-16 0-32 0-32-187 0-186 0 0 126 0 125 171 0 171 0 18 18 18 18-20 20-19 19-256 0c-246 0-257 0-261-5z m120-116l1-31-32 0-31 0 0 29c0 17 1 31 2 32 1 0 15 1 30 1l29-1 1-30z m0-163l0-30-31 0-31 0 0 30 0 30 31 0 31 0 0-30z m548 0l0-30-30 0-30 0 0 30 0 30 30 0 30 0 0-30z m-117-245l0-126-187 0-186 0 0 126 0 126 186 0 187 0 0-126z m-431 84l0-30-31 0-31 0 0 30 0 29 31 0 31 0 0-29z m548 0l0-30-30 0-30 0 0 30 0 29 30 0 30 0 0-29z m-548-163l-1-30-30 0-30 0 0 30-1 31 31 0 32 0-1-31z m548-1l0-31-30 0-30 0 0 31 0 32 30 0 30 0 0-32z" horiz-adv-x="1000" />
<glyph glyph-name="dvd" unicode="&#xe82e;" d="M500 850c-276 0-500-224-500-500 0-276 224-500 500-500 276 0 500 224 500 500 0 276-224 500-500 500z m0-74c235 0 426-191 426-426 0-235-191-426-426-426-235 0-425 191-425 426 0 235 190 426 425 426z m-68-68c-146-28-262-143-290-289l103-20c20 104 102 186 206 206l-19 103z m49-168c-96-10-171-91-171-190 0-105 85-190 190-190 105 0 190 85 190 190 0 105-85 190-190 190-7 0-13 1-19 0z m19-144c25 0 46-21 46-46 0-25-21-46-46-46-25 0-46 21-46 46 0 25 21 46 46 46z m255-95c-20-104-102-186-206-206l20-103c146 28 261 143 289 290l-103 19z" horiz-adv-x="1000" />
<glyph glyph-name="genre" unicode="&#xe82f;" d="M7 510c-46-117 138-299 410-405 272-107 530-98 576 19 29 73-32 171-147 260-1-37-8-73-22-108-6-15-19-36-49-48-18-7-40-10-66-10-67 0-162 24-256 64-45 19-87 41-121 63-39 25-67 51-84 76-25 37-22 67-14 85 13 35 33 67 57 95-145 12-255-18-284-91z m886-333c13 9 33 3 44-13 12-15 11-36-1-45s-32-4-44 12c-12 16-11 36 1 46z m-486 9c6 16 27 22 48 15 20-8 31-28 25-44-7-16-28-23-48-15-20 8-32 28-25 44z m-323 261c-19-4-38 5-41 21-3 15 11 30 30 34 20 4 38-5 41-21 3-15-11-30-30-34z m625-191c41 0 70 10 79 34 16 40 22 82 19 122-8 104-74 198-177 238-33 13-67 20-101 20-70 0-138-27-190-75-30-28-54-62-70-103-35-90 284-236 440-236z" horiz-adv-x="1000" />
<glyph glyph-name="info" unicode="&#xe830;" d="M0 350q0 207 147 354t353 146 354-146 146-354-146-354-354-146-353 146-147 354z m373 66l8-39 35 8q25 0 25-35l0-244q0-20-13-29-18-12-53-20l8-35q84 8 118 8t118-8l8 35q-35 10-53 20-10 6-11 11-2 4-2 18l0 240q0 49 15 90l-19 23q-32 0-90-13t-94-30z m35 195q0-30 20-50 21-18 56-18t57 19 22 49-22 49-57 18-56-17q-20-20-20-50z" horiz-adv-x="1000" />
<glyph glyph-name="actor" unicode="&#xe831;" d="M500 804c-231 0-346-120-346-331 1-22 2-40 5-56-7 3-15 6-24 6-14 0-29-7-38-16-8-10-12-20-14-29-4-19-2-36 0-54 5-37 16-74 23-93a35 35 0 0 0 1-2c15-34 32-64 52-87 13-15 28-25 45-32 15-86 70-150 129-190 32-22 65-39 94-50 29-10 52-16 73-16 21 0 45 6 73 16 29 11 62 28 94 50 59 40 113 103 128 188 17 8 34 19 48 34 20 23 38 53 51 88 7 19 18 56 23 92 3 19 4 36 0 54-2 10-6 21-14 31-9 9-24 16-38 16-9 0-18-2-25-6 4 17 6 35 6 56 0 246-115 331-346 331z m-238-216c2 1 5 0 7 0 31 0 70-26 231-26 162 0 196 26 231 26 46 0 42-146 42-288 6 3 14 11 24 22a35 35 0 0 0 40 8c4 4 7 5 10 8 0-3 1-3 0-6-3-29-13-65-18-77-10-27-24-51-38-66-14-15-27-19-25-19a35 35 0 0 0-35-33c-5-71-50-124-104-161-26-18-54-32-78-41-23-9-45-12-49-12-4 0-25 3-49 12-24 9-52 23-78 41-54 37-99 90-104 161a35 35 0 0 0-35 33c2 0-9 2-22 18-14 15-28 39-40 66 0 0-1 2-1 2-6 17-15 50-18 77-1 2 0 3 0 5 3-3 6-4 11-8a35 35 0 0 0 39-6c8-9 17-17 24-24-7 191-1 278 35 288z m7-91c0 0 8-128 154-147l39 65c-147-23-193 82-193 82z m462 0c0 0-46-105-192-82l38-65c146 19 154 147 154 147z m-366-185c-31 0-57-26-57-58 0-32 26-58 57-58 32 0 58 26 58 58 0 32-26 58-58 58z m270 0c-32 0-58-26-58-58 0-32 26-58 58-58 32 0 57 26 57 58 0 32-25 58-57 58z" horiz-adv-x="1000" />
<glyph glyph-name="writer" unicode="&#xe832;" d="M208 767l0-42 0-208 84 0 0 166 416 0 0-166 84 0 0 208 0 42-42 0-500 0-42 0z m-83-292l0-42-42 0 0-83 42 0 0-333c0-46 37-84 83-84l584 0c46 0 83 38 83 84l0 333 42 0 0 83-42 0 0 42-292 0 0-83 42 0c23 0 42-19 42-42 0-23-19-42-42-42l-250 0c-23 0-42 19-42 42 0 23 19 42 42 42l42 0 0 83-292 0z m125-250c23 0 42-19 42-42 0-23-19-41-42-41-23 0-42 18-42 41 0 23 19 42 42 42z m167 0c23 0 41-19 41-42 0-23-18-41-41-41-23 0-42 18-42 41 0 23 19 42 42 42z m166 0c23 0 42-19 42-42 0-23-19-41-42-41-23 0-41 18-41 41 0 23 18 42 41 42z m167 0c23 0 42-19 42-42 0-23-19-41-42-41-23 0-42 18-42 41 0 23 19 42 42 42z m-417-125c23 0 42-19 42-42 0-23-19-41-42-41-23 0-41 18-41 41 0 23 18 42 41 42z m167 0c23 0 42-19 42-42 0-23-19-41-42-41-23 0-42 18-42 41 0 23 19 42 42 42z m167 0c23 0 41-19 41-42 0-23-18-41-41-41-23 0-42 18-42 41 0 23 19 42 42 42z" horiz-adv-x="1000" />
<glyph glyph-name="imdb" unicode="&#xe833;" d="M100 630c-55 0-100-45-100-100l0-320c0-55 45-100 100-100l800 0c55 0 100 45 100 100l0 320c0 55-45 100-100 100l-800 0z m0-40l800 0c33 0 60-27 60-60l0-320c0-33-27-60-60-60l-800 0c-33 0-60 27-60 60l0 320c0 33 27 60 60 60z m70-78l0-266 64 0 0 266-64 0z m98 0l0-266 58 0 0 150 26-150 40 0 28 150 0-150 54 0 0 266-88 0-14-126-22 126-82 0z m416 0l0-266 54 0c0 0 4 16 8 14 4-2 28-12 44-12 16 0 22 2 30 4 10 6 14 14 14 26l0 154c2 24-22 36-40 38-18 0-36-10-44-18l0 60-66 0z m-176-2l0-266 72 0c42 0 56 4 66 14 10 10 18 22 18 38l0 160c0 22-6 34-18 42-12 8-22 12-66 12l-72 0z m64-40c12 0 24 2 24-12l0-156c0-12-14-10-24-10l0 178z m188-34c6 0 8-4 8-10l2-134c0-6-4-12-10-12-6 0-10 4-10 12l0 134c0 6 4 10 10 10z" horiz-adv-x="1000" />
<glyph glyph-name="star-empty" unicode="&#xe834;" d="M634 290l171 165-235 35-106 213-105-213-236-35 171-165-41-235 211 111 211-111z m295 199q0-12-15-27l-203-197 48-279q1-4 1-12 0-28-23-28-10 0-22 7l-251 132-250-132q-13-7-23-7-11 0-17 9t-6 19q0 4 1 12l48 279-203 197q-14 15-14 27 0 21 31 26l280 40 126 254q11 23 27 23t28-23l125-254 280-40q32-5 32-26z" horiz-adv-x="928.6" />
<glyph glyph-name="uncheck" unicode="&#xe835;" d="M625 707h-464q-37 0-63-26t-27-63v-464q0-37 27-63t63-27h464q37 0 63 27t26 63v464q0 37-26 63t-63 26z m161-89v-464q0-67-47-114t-114-47h-464q-67 0-114 47t-47 114v464q0 66 47 113t114 48h464q66 0 114-48t47-113z" horiz-adv-x="785.7" />
<glyph glyph-name="check" unicode="&#xe836;" d="M786 331v-177q0-67-47-114t-114-47h-464q-67 0-114 47t-47 114v464q0 66 47 113t114 48h464q35 0 65-14 9-4 10-13 2-10-5-16l-27-28q-6-5-13-5-2 0-5 1-13 3-25 3h-464q-37 0-63-26t-27-63v-464q0-37 27-63t63-27h464q37 0 63 27t26 63v141q0 8 5 13l36 35q6 6 13 6 3 0 7-2 11-4 11-16z m129 273l-455-454q-13-14-31-14t-32 14l-240 240q-14 13-14 31t14 32l61 62q14 13 32 13t32-13l147-147 361 361q13 13 31 13t32-13l62-61q13-14 13-32t-13-32z" horiz-adv-x="928.6" />
<glyph glyph-name="view" unicode="&#xe837;" d="M0 350q6 49 64 110 79 80 176 129 129 60 260 60 137-2 260-60 103-53 176-129 64-73 64-110-6-49-64-109-79-80-176-129-129-61-260-61-137 2-260 61-103 53-176 129-64 72-64 109z m264 0q0-94 69-159t167-65 167 65 69 159-69 159-167 66-167-66-69-159z m86 1q0 60 44 102t106 42 106-42 44-102-44-102-106-43-106 43-44 102z" horiz-adv-x="1000" />
<glyph glyph-name="forward" unicode="&#xe839;" d="M0 170l0 360 414 0 0 211 586-391-586-391 0 211-414 0z" horiz-adv-x="1000" />
</font>
</defs>
</svg>
